<?xml version="1.0" encoding="iso-8859-1"?>
<!-- Uploaded to: SVG Repo, www.svgrepo.com, Generator: SVG Repo Mixer Tools -->
<svg fill="#000000" height="800px" width="800px" version="1.1" id="Layer_1" xmlns="http://www.w3.org/2000/svg" xmlns:xlink="http://www.w3.org/1999/xlink" 
	 viewBox="0 0 512 512" xml:space="preserve">
<g>
	<g>
		<path d="M468.659,212.661H155.875v-43.179c0-19.122-15.557-34.678-34.678-34.678c-9.263,0-17.971,3.606-24.522,10.156
			l-86.518,86.519C3.607,238.028,0,246.736,0,256c0,9.265,3.607,17.974,10.157,24.522l86.519,86.519
			c6.549,6.55,15.258,10.156,24.521,10.156c19.121,0,34.678-15.557,34.678-34.678v-43.178h312.785
			C492.557,299.341,512,279.899,512,256C512,232.102,492.557,212.661,468.659,212.661z M468.661,278.942H145.676
			c-5.633,0-10.199,4.567-10.199,10.199v53.378c0,7.874-6.406,14.28-14.28,14.28c-3.815,0-7.401-1.485-10.097-4.183l-86.52-86.52
			c-2.697-2.696-4.182-6.282-4.182-10.096s1.486-7.401,4.184-10.097l86.518-86.519c2.698-2.698,6.284-4.183,10.098-4.183
			c7.874,0,14.28,6.406,14.28,14.28v53.379c0,5.632,4.566,10.199,10.199,10.199h322.983c12.65,0,22.941,10.292,22.941,22.941
			C491.602,268.65,481.311,278.942,468.661,278.942z"/>
	</g>
</g>
<g>
	<g>
		<path d="M104.238,305.241l-1.494-1.495c-3.982-3.983-10.44-3.986-14.424-0.002c-3.983,3.983-3.985,10.441-0.002,14.425
			l1.494,1.495c1.991,1.992,4.602,2.988,7.213,2.988c2.609,0,5.219-0.995,7.211-2.986
			C108.219,315.683,108.221,309.225,104.238,305.241z"/>
	</g>
</g>
<g>
	<g>
		<path d="M79.998,280.999l-31.192-31.192c-3.984-3.982-10.442-3.982-14.425,0c-3.983,3.984-3.983,10.442,0,14.425l31.192,31.192
			c1.991,1.991,4.602,2.987,7.212,2.987s5.22-0.997,7.213-2.987C83.981,291.44,83.981,284.982,79.998,280.999z"/>
	</g>
</g>
</svg>