<svg width="13" height="18" viewBox="0 0 13 18" fill="none" xmlns="http://www.w3.org/2000/svg">
<path d="M5.67081 10.4765C2.42804 10.7373 -0.0424964 13.1755 0.000554097 16.0725V16.2194C0.000554097 16.7803 0.51156 17.235 1.14191 17.235C1.77226 17.235 2.28326 16.7803 2.28326 16.2194V16.0318C2.24895 14.2531 3.72415 12.7363 5.70733 12.5111C7.80076 12.3264 9.66612 13.6867 9.87371 15.5495C9.88598 15.6596 9.89218 15.7702 9.89229 15.8809V16.2194C9.89229 16.7803 10.4033 17.235 11.0336 17.235C11.664 17.235 12.175 16.7803 12.175 16.2194V15.8808C12.1713 12.886 9.43985 10.4609 6.07421 10.4642C5.93963 10.4644 5.8051 10.4685 5.67081 10.4765Z" fill="#FCFEFF"/>
<path d="M6.08783 9.10965C8.60923 9.10965 10.6533 7.29084 10.6533 5.04726C10.6533 2.80367 8.60923 0.984863 6.08783 0.984863C3.56644 0.984863 1.52241 2.80367 1.52241 5.04726C1.52491 7.28992 3.56747 9.1074 6.08783 9.10965ZM6.08783 3.01606C7.34853 3.01606 8.37054 3.92547 8.37054 5.04726C8.37054 6.16905 7.34853 7.07845 6.08783 7.07845C4.82713 7.07845 3.80512 6.16905 3.80512 5.04726C3.80512 3.92547 4.82713 3.01606 6.08783 3.01606Z" fill="#FCFEFF"/>
</svg>
