<svg width="26" height="26" viewBox="0 0 26 26" fill="none" xmlns="http://www.w3.org/2000/svg">
<path d="M13.9834 6.49189C14.9651 6.49189 15.7643 5.70836 15.7643 4.74594C15.7643 3.78353 14.9651 3 13.9834 3C13.0017 3 12.2024 3.78353 12.2024 4.74594C12.2024 5.70836 13.0017 6.49189 13.9834 6.49189ZM4.30571 6.49189C3.32399 6.49189 2.52476 5.70836 2.52476 4.74594C2.52476 3.78353 3.32399 3 4.30571 3C5.28742 3 6.08665 3.78353 6.08665 4.74594C6.08665 5.70836 5.28742 6.49189 4.30571 6.49189ZM23.6942 6.49189C24.6759 6.49189 25.4751 5.70836 25.4751 4.74594C25.4751 3.78353 24.6759 3 23.6942 3C22.7125 3 21.9133 3.78353 21.9133 4.74594C21.9133 5.70836 22.7125 6.49189 23.6942 6.49189ZM25.9967 14.9381C25.9967 15.2338 25.5588 23.8426 25.5588 23.8426C25.5588 24.496 25.0447 25 24.3782 25C23.7117 25 23.1976 24.496 23.1976 23.8426C23.1976 23.8426 22.377 14.8821 22.1505 11.5364L20.2704 13.7515C20.1091 13.9415 19.871 14.0495 19.622 14.0495C19.5897 14.0495 19.5573 14.0477 19.5248 14.044C19.2417 14.0118 18.9944 13.8418 18.8672 13.5919L16.6134 9.16747V23.7378C16.6134 24.432 16.0892 24.9998 15.4363 24.9998C14.7835 24.9998 14.2593 24.432 14.2593 23.7378V15.7599C14.2593 15.6337 14.1489 15.5255 14.0201 15.5255C13.8914 15.5255 13.781 15.6337 13.781 15.7599V23.7379C13.781 24.4321 13.2568 24.9999 12.604 24.9999C11.9511 24.9999 11.4269 24.4321 11.4269 23.7379V9.08774L9.13245 13.592C9.00521 13.8419 8.75788 14.0119 8.47493 14.0441C8.44245 14.0477 8.40998 14.0496 8.37769 14.0496C8.12883 14.0496 7.89064 13.9416 7.72931 13.7516L5.84941 11.5364C5.62294 14.8821 4.80227 23.8425 4.80227 23.8425C4.80227 24.4959 4.28818 24.9999 3.62171 24.9999C2.95523 24.9999 2.44114 24.4959 2.44114 23.8425C2.44114 23.8425 2.00324 15.2338 2.00324 14.9381C2.00324 14.9381 2 8.27751 2 8.25594C2 7.51182 2.58009 6.9857 3.29571 6.9857C3.8378 6.9857 4.25504 7.16533 4.69085 7.59407C4.70332 7.6064 8.20045 11.7202 8.20045 11.7202C8.19455 11.7133 9.74911 8.63025 10.0583 8.07873C10.472 7.34086 11.0689 6.98542 11.8297 6.98028C11.8315 6.98028 11.8336 6.97982 11.8353 6.97982C11.8353 6.97982 16.1279 6.98094 16.1541 6.98187C16.9226 6.97982 17.5252 7.33554 17.9419 8.07911C17.9506 8.09377 19.7996 11.7202 19.7996 11.7202C19.7996 11.7202 23.2962 7.6064 23.3095 7.59379C23.7355 7.156 24.2191 6.9857 24.7043 6.9857C25.4199 6.9857 26 7.55439 26 8.25594C25.9999 8.5112 25.9967 14.9381 25.9967 14.9381Z" fill="black"/>
</svg>
