<svg width="13" height="16" viewBox="0 0 13 16" fill="none" xmlns="http://www.w3.org/2000/svg">
<path d="M5.71036 9.23305C2.46759 9.48236 -0.00294562 11.8129 0.0401049 14.582V14.7224C0.0401049 15.2585 0.551111 15.6932 1.18146 15.6932C1.81181 15.6932 2.32282 15.2585 2.32282 14.7224V14.5431C2.2885 12.8429 3.76371 11.3931 5.74688 11.1778C7.84031 11.0013 9.70567 12.3016 9.91326 14.0821C9.92553 14.1874 9.93173 14.2931 9.93184 14.3988V14.7224C9.93184 15.2585 10.4428 15.6932 11.0732 15.6932C11.7035 15.6932 12.2146 15.2585 12.2146 14.7224V14.3988C12.2108 11.5362 9.4794 9.21813 6.11376 9.22128C5.97918 9.22143 5.84465 9.22534 5.71036 9.23305Z" fill="#FCFEFF"/>
<path d="M6.12738 7.92653C8.64878 7.92653 10.6928 6.18801 10.6928 4.04346C10.6928 1.89892 8.64878 0.1604 6.12738 0.1604C3.60599 0.1604 1.56196 1.89892 1.56196 4.04346C1.56446 6.18713 3.60702 7.92437 6.12738 7.92653ZM6.12738 2.10193C7.38808 2.10193 8.41009 2.97119 8.41009 4.04346C8.41009 5.11574 7.38808 5.985 6.12738 5.985C4.86668 5.985 3.84467 5.11574 3.84467 4.04346C3.84467 2.97119 4.86668 2.10193 6.12738 2.10193Z" fill="#FCFEFF"/>
</svg>
