<svg width="30" height="30" viewBox="0 0 30 30" fill="none" xmlns="http://www.w3.org/2000/svg">
<path d="M22.125 18.25C21.6277 18.25 21.1508 18.0525 20.7992 17.7008C20.4475 17.3492 20.25 16.8723 20.25 16.375C20.25 15.8777 20.4475 15.4008 20.7992 15.0492C21.1508 14.6975 21.6277 14.5 22.125 14.5C22.6223 14.5 23.0992 14.6975 23.4508 15.0492C23.8025 15.4008 24 15.8777 24 16.375C24 16.8723 23.8025 17.3492 23.4508 17.7008C23.0992 18.0525 22.6223 18.25 22.125 18.25ZM18.375 13.25C17.8777 13.25 17.4008 13.0525 17.0492 12.7008C16.6975 12.3492 16.5 11.8723 16.5 11.375C16.5 10.8777 16.6975 10.4008 17.0492 10.0492C17.4008 9.69754 17.8777 9.5 18.375 9.5C18.8723 9.5 19.3492 9.69754 19.7008 10.0492C20.0525 10.4008 20.25 10.8777 20.25 11.375C20.25 11.8723 20.0525 12.3492 19.7008 12.7008C19.3492 13.0525 18.8723 13.25 18.375 13.25ZM12.125 13.25C11.6277 13.25 11.1508 13.0525 10.7992 12.7008C10.4475 12.3492 10.25 11.8723 10.25 11.375C10.25 10.8777 10.4475 10.4008 10.7992 10.0492C11.1508 9.69754 11.6277 9.5 12.125 9.5C12.6223 9.5 13.0992 9.69754 13.4508 10.0492C13.8025 10.4008 14 10.8777 14 11.375C14 11.8723 13.8025 12.3492 13.4508 12.7008C13.0992 13.0525 12.6223 13.25 12.125 13.25ZM8.375 18.25C7.87772 18.25 7.40081 18.0525 7.04917 17.7008C6.69754 17.3492 6.5 16.8723 6.5 16.375C6.5 15.8777 6.69754 15.4008 7.04917 15.0492C7.40081 14.6975 7.87772 14.5 8.375 14.5C8.87228 14.5 9.34919 14.6975 9.70083 15.0492C10.0525 15.4008 10.25 15.8777 10.25 16.375C10.25 16.8723 10.0525 17.3492 9.70083 17.7008C9.34919 18.0525 8.87228 18.25 8.375 18.25ZM15.25 7C12.2663 7 9.40483 8.18526 7.29505 10.295C5.18526 12.4048 4 15.2663 4 18.25C4 21.2337 5.18526 24.0952 7.29505 26.205C9.40483 28.3147 12.2663 29.5 15.25 29.5C15.7473 29.5 16.2242 29.3025 16.5758 28.9508C16.9275 28.5992 17.125 28.1223 17.125 27.625C17.125 27.1375 16.9375 26.7 16.6375 26.375C16.35 26.0375 16.1625 25.6 16.1625 25.125C16.1625 24.6277 16.36 24.1508 16.7117 23.7992C17.0633 23.4475 17.5402 23.25 18.0375 23.25H20.25C21.9076 23.25 23.4973 22.5915 24.6694 21.4194C25.8415 20.2473 26.5 18.6576 26.5 17C26.5 11.475 21.4625 7 15.25 7Z" fill="black"/>
</svg>
