<?xml version="1.0" standalone="no"?>
<!DOCTYPE svg PUBLIC "-//W3C//DTD SVG 20010904//EN"
 "http://www.w3.org/TR/2001/REC-SVG-20010904/DTD/svg10.dtd">
<svg version="1.0" xmlns="http://www.w3.org/2000/svg"
 width="1080.000000pt" height="1080.000000pt" viewBox="0 0 1080.000000 1080.000000"
 preserveAspectRatio="xMidYMid meet">

<g transform="translate(0.000000,1080.000000) scale(0.100000,-0.100000)"
fill="#000000" stroke="none">
<path d="M0 5400 l0 -5400 5400 0 5400 0 0 5400 0 5400 -5400 0 -5400 0 0
-5400z m5716 1818 c150 -112 282 -277 382 -475 66 -129 137 -390 148 -541 6
-81 -9 -86 -22 -7 -8 50 -71 227 -114 320 -80 173 -219 355 -373 488 l-67 59
0 89 c0 49 4 89 8 89 4 0 22 -10 38 -22z m1247 -125 l-6 -83 -55 -41 c-224
-170 -417 -459 -506 -760 l-25 -84 0 60 c-1 66 27 203 61 305 72 220 234 469
383 593 99 81 138 108 146 100 4 -5 4 -45 2 -90z m-1484 48 c193 -99 512 -471
627 -732 44 -101 39 -123 -8 -38 -130 230 -358 449 -595 568 l-83 41 0 74 c0
41 -3 81 -6 90 -8 22 18 21 65 -3z m1759 -87 c6 -111 3 -115 -97 -158 -49 -20
-145 -74 -213 -118 -149 -97 -303 -248 -396 -387 -70 -105 -79 -104 -26 2 99
196 253 382 445 537 120 98 258 192 273 187 6 -2 12 -30 14 -63z m-1860 -116
c272 -111 558 -367 717 -641 41 -71 23 -68 -26 5 -64 93 -230 254 -337 326
-146 97 -271 153 -427 191 l-70 17 -3 53 c-4 77 1 85 48 78 22 -3 66 -16 98
-29z m2027 -92 l0 -60 -105 -27 c-248 -63 -457 -177 -643 -350 -44 -40 -97
-97 -120 -128 -60 -82 -56 -45 6 51 164 254 494 495 772 564 85 21 90 18 90
-50z m-2155 -72 c254 -52 496 -187 686 -386 111 -116 172 -211 218 -340 31
-86 68 -124 132 -134 70 -10 127 23 160 94 92 199 95 203 219 328 69 69 154
142 200 173 103 68 257 142 365 175 90 28 275 54 303 43 22 -8 59 -89 47 -101
-4 -4 -50 -13 -102 -18 -214 -21 -410 -92 -588 -213 -183 -124 -307 -260 -354
-388 -14 -39 -37 -84 -50 -102 -57 -74 -191 -101 -288 -58 -55 25 -91 74 -117
160 -33 110 -147 259 -278 365 -199 161 -390 252 -632 299 -70 14 -111 26
-111 34 0 15 25 77 35 87 8 8 51 3 155 -18z m-2888 -118 c239 -51 404 -143
544 -304 56 -64 63 -75 53 -94 -14 -26 -232 -251 -283 -291 l-38 -30 -49 55
c-56 64 -145 124 -240 162 -232 93 -529 66 -668 -59 -53 -48 -71 -83 -71 -135
0 -79 45 -136 152 -191 55 -28 225 -75 383 -104 464 -87 677 -193 793 -392 69
-118 77 -155 77 -348 -1 -159 -3 -175 -29 -255 -47 -141 -122 -240 -256 -340
-290 -214 -838 -250 -1245 -81 -124 51 -258 142 -339 228 -71 77 -73 69 55
201 63 64 136 142 163 172 l48 54 19 -24 c117 -152 238 -231 414 -271 88 -20
272 -22 365 -5 288 55 411 259 248 412 -60 57 -154 93 -358 138 -313 70 -446
107 -549 153 -134 60 -179 89 -266 177 -124 125 -175 253 -175 448 0 219 50
349 189 489 47 47 114 102 148 122 120 70 299 123 468 141 101 10 336 -4 447
-28z m6588 -6 c181 -22 362 -87 493 -176 59 -41 207 -181 207 -196 0 -11 -257
-285 -302 -323 l-31 -26 -65 65 c-73 74 -173 131 -292 167 -60 18 -99 22 -195
22 -184 0 -289 -35 -368 -122 -98 -108 -58 -232 100 -306 71 -34 134 -52 383
-111 235 -56 299 -75 410 -121 187 -79 305 -183 369 -324 43 -97 56 -162 55
-289 0 -266 -97 -468 -289 -604 -176 -126 -362 -183 -630 -193 -360 -13 -647
76 -878 271 -60 51 -127 138 -127 164 0 17 321 362 331 356 5 -3 18 -23 30
-45 32 -64 139 -164 216 -202 138 -69 198 -82 388 -81 150 0 177 3 229 22 184
68 254 168 215 305 -28 102 -181 190 -419 241 -378 80 -499 122 -667 228 -110
69 -210 199 -245 317 -38 128 -34 343 8 467 46 135 183 291 327 373 94 53 224
98 337 116 105 16 297 19 410 5z m-5211 -46 c12 -4 14 -147 10 -982 l-4 -977
563 -3 562 -2 0 -235 0 -235 -815 0 -815 0 0 1219 c0 967 3 1220 13 1224 15 5
467 -3 486 -9z m1535 -121 c228 -56 405 -183 544 -389 34 -51 198 -359 437
-819 29 -55 56 -100 61 -99 5 0 69 119 142 265 231 458 310 607 354 672 81
120 198 216 338 277 89 39 293 82 370 78 l55 -3 -3 -1140 c-2 -627 -6 -1142
-9 -1145 -2 -3 -111 -5 -241 -5 l-237 0 -5 687 c-3 377 -8 689 -11 693 -4 3
-12 0 -18 -7 -5 -7 -91 -173 -190 -368 -99 -195 -227 -445 -285 -555 -59 -110
-137 -260 -173 -332 -69 -136 -84 -151 -115 -115 -9 9 -66 116 -128 237 -62
121 -132 256 -155 300 -24 44 -68 127 -98 185 -30 58 -102 196 -161 308 -58
111 -122 236 -142 277 -66 138 -64 154 -64 -610 l0 -685 -27 -11 c-18 -7 -106
-9 -236 -7 -171 2 -209 6 -217 18 -11 17 -14 2312 -4 2323 11 11 110 -3 218
-30z m1351 -2623 c27 -13 49 -34 64 -61 26 -45 26 -44 -12 -53 -22 -5 -29 -2
-36 16 -32 84 -157 87 -206 5 -26 -42 -28 -167 -3 -213 48 -89 179 -79 218 17
11 24 16 28 39 22 38 -9 38 -10 10 -61 -49 -89 -156 -118 -250 -69 -104 55
-133 251 -52 348 55 65 151 86 228 49z m-4975 -80 c0 -49 3 -90 6 -90 3 0 47
40 97 90 87 85 94 90 135 90 l43 0 -90 -86 -90 -85 95 -125 95 -124 -38 0
c-37 0 -42 4 -103 86 -36 47 -71 93 -77 102 -12 14 -16 13 -43 -13 -28 -27
-30 -34 -30 -102 l0 -73 -30 0 -30 0 0 210 0 210 30 0 30 0 0 -90z m1440 -120
l0 -210 -25 0 -25 0 0 210 0 210 25 0 25 0 0 -210z m660 0 l0 -210 -25 0 c-16
0 -25 6 -25 15 0 13 -6 11 -29 -6 -57 -42 -145 -8 -177 68 -19 45 -17 120 5
169 31 68 121 96 175 53 l26 -20 0 70 c0 69 1 71 25 71 l25 0 0 -210z m1098
25 c-3 -184 -3 -185 -29 -211 -54 -54 -162 -39 -188 25 -18 42 -11 65 22 69
21 3 27 -1 27 -15 0 -28 28 -63 51 -63 10 0 28 9 39 20 18 18 20 33 20 190 l0
170 31 0 30 0 -3 -185z m787 75 c20 0 25 -5 25 -25 0 -20 -5 -25 -25 -25 l-26
0 3 -107 c3 -99 5 -108 23 -112 21 -4 35 -18 35 -38 0 -19 -70 -16 -92 4 -15
14 -18 32 -18 135 0 111 -1 118 -20 118 -15 0 -20 7 -20 25 0 18 5 25 20 25
17 0 20 7 20 39 0 29 6 42 23 54 22 14 22 14 25 -39 3 -50 5 -54 27 -54z
m1195 -100 l0 -210 -25 0 -25 0 0 210 0 210 25 0 25 0 0 -210z m140 185 c0
-20 -5 -25 -25 -25 -20 0 -25 5 -25 25 0 20 5 25 25 25 20 0 25 -5 25 -25z
m420 -92 l0 -117 63 62 c53 53 68 62 97 62 l35 -1 -57 -53 c-32 -29 -58 -57
-58 -62 0 -5 11 -25 24 -44 13 -19 40 -61 60 -92 l37 -58 -30 0 c-27 0 -36 9
-82 80 -49 78 -52 80 -70 64 -15 -13 -19 -31 -19 -81 0 -61 -1 -63 -25 -63
l-25 0 0 210 0 210 25 0 25 0 0 -117z m656 -77 c98 -251 92 -228 53 -224 -29
3 -34 8 -54 63 l-23 60 -87 0 -88 0 -22 -60 c-20 -54 -26 -60 -54 -63 -17 -2
-31 0 -31 3 0 3 32 88 71 188 39 100 75 192 80 205 7 19 15 23 45 20 l37 -3
73 -189z m-5855 65 l29 -29 0 -131 0 -131 -25 0 -25 0 0 115 c0 104 -2 117
-21 136 -17 17 -29 20 -57 15 -60 -9 -67 -23 -70 -151 -4 -114 -4 -115 -28
-115 l-24 0 0 155 0 155 25 0 c19 0 25 -5 25 -22 0 -19 2 -20 13 -6 38 48 115
52 158 9z m310 6 c44 -29 69 -80 69 -142 0 -62 -25 -113 -70 -143 -29 -20 -44
-23 -88 -20 -84 7 -132 67 -132 165 0 93 62 163 145 163 27 0 54 -8 76 -23z
m880 0 c40 -26 69 -79 69 -124 l0 -33 -120 0 c-66 0 -120 -2 -120 -5 0 -27 33
-74 59 -84 39 -17 96 -7 115 21 11 16 21 19 41 14 26 -7 26 -7 8 -36 -22 -38
-69 -60 -126 -60 -86 0 -147 68 -147 165 0 95 61 165 145 165 27 0 54 -8 76
-23z m619 8 c17 -9 30 -11 30 -5 0 5 12 10 26 10 l25 0 -3 -180 -3 -180 -32
-31 c-70 -70 -223 -39 -223 45 0 23 21 20 60 -9 45 -33 93 -33 125 0 14 13 25
36 25 50 0 25 -1 25 -30 10 -122 -63 -232 80 -173 226 28 70 106 99 173 64z
m366 -16 c32 -29 54 -78 54 -119 l0 -30 -120 0 c-66 0 -120 -2 -120 -5 0 -27
33 -74 59 -84 39 -17 96 -7 115 21 11 16 21 19 41 14 26 -7 26 -7 8 -36 -22
-38 -69 -60 -126 -60 -86 0 -147 68 -147 165 0 62 25 113 70 143 47 32 127 27
166 -9z m1064 16 c48 -25 65 -69 29 -80 -14 -5 -27 1 -44 19 -27 29 -70 34
-100 12 -31 -23 -11 -44 66 -66 118 -35 151 -94 91 -161 -24 -27 -37 -33 -83
-36 -68 -6 -104 8 -129 49 -25 41 -25 45 0 53 15 5 28 -2 49 -24 33 -35 82
-42 119 -15 46 32 29 49 -80 79 -87 24 -122 86 -82 143 29 42 109 55 164 27z
m637 5 c42 -15 53 -47 53 -153 0 -51 4 -107 9 -125 9 -30 8 -32 -16 -32 -14 0
-32 8 -38 17 -12 17 -14 17 -34 -1 -14 -12 -41 -21 -76 -24 -50 -4 -57 -2 -85
26 -32 32 -38 64 -19 106 14 30 57 51 124 60 73 10 85 15 85 36 0 52 -115 66
-150 20 -12 -16 -23 -20 -38 -15 -26 8 -27 13 -6 44 32 45 123 64 191 41z
m1173 -5 c38 -20 68 -74 48 -86 -21 -14 -28 -11 -58 21 -62 67 -150 13 -150
-92 0 -49 33 -96 72 -103 44 -8 85 8 100 40 12 26 24 30 46 17 17 -12 2 -50
-33 -82 -23 -21 -36 -25 -90 -25 -54 0 -68 4 -90 25 -69 63 -75 191 -12 259
12 13 31 27 42 31 32 14 94 11 125 -5z m1547 5 c42 -15 53 -47 53 -153 0 -51
4 -107 9 -125 9 -30 8 -32 -16 -32 -14 0 -32 8 -38 17 -12 17 -14 17 -34 -1
-14 -12 -41 -21 -76 -24 -50 -4 -57 -2 -85 26 -32 32 -38 64 -19 106 14 30 57
51 124 60 73 10 85 15 85 36 0 52 -115 66 -150 20 -12 -16 -23 -20 -38 -15
-26 8 -27 13 -6 44 32 45 123 64 191 41z m-6110 -117 l37 -118 14 50 c47 176
51 186 79 183 25 -3 29 -11 58 -115 l31 -113 38 115 c34 105 40 115 62 115 13
0 24 -4 24 -9 0 -7 -77 -237 -95 -283 -4 -11 -18 -18 -34 -18 -25 0 -27 5 -57
118 l-30 117 -29 -117 c-28 -114 -30 -118 -56 -118 -16 0 -30 7 -34 18 -18 46
-95 276 -95 283 0 5 11 9 25 9 22 0 27 -10 62 -117z m2303 2 c0 -102 2 -117
20 -135 24 -24 51 -25 89 -5 36 18 41 37 41 158 0 97 0 97 25 97 l25 0 0 -155
0 -155 -25 0 c-19 0 -25 5 -25 22 l0 22 -20 -22 c-38 -41 -120 -41 -156 -1
-16 18 -19 41 -22 155 l-4 134 26 0 26 0 0 -115z m1990 -40 l0 -155 -25 0 -25
0 0 155 0 155 25 0 25 0 0 -155z m1247 38 c20 -64 39 -111 40 -106 2 6 16 58
32 115 26 100 28 103 56 103 28 0 29 -2 59 -113 l31 -113 38 116 c35 105 41
115 63 115 13 0 24 -4 24 -9 0 -5 -23 -75 -51 -155 -48 -138 -53 -146 -78
-146 -25 0 -27 5 -56 117 l-31 117 -29 -117 c-28 -113 -31 -117 -56 -117 -16
0 -30 7 -34 18 -14 34 -95 276 -95 284 0 4 11 8 25 8 22 0 27 -10 62 -117z
m769 1 l41 -116 40 113 c36 103 43 114 67 117 14 2 26 1 26 -2 0 -10 -123
-353 -136 -378 -8 -15 -23 -32 -33 -38 -24 -12 -71 -13 -71 -1 0 5 -3 16 -6
25 -5 12 0 16 18 16 26 0 50 21 62 54 5 15 -27 116 -101 314 -4 8 5 12 24 12
28 0 30 -4 69 -116z"/>
<path d="M3567 3700 c-67 -53 -32 -210 46 -210 83 0 118 140 52 206 -29 29
-64 31 -98 4z"/>
<path d="M7905 3733 c-16 -43 -30 -84 -33 -90 -3 -10 13 -13 62 -13 36 0 66 2
66 4 0 8 -62 176 -65 176 -1 0 -15 -35 -30 -77z"/>
<path d="M2379 3705 c-65 -35 -63 -167 3 -201 65 -34 124 3 135 83 13 97 -61
160 -138 118z"/>
<path d="M3264 3710 c-21 -8 -54 -46 -54 -62 0 -5 43 -8 95 -8 61 0 95 4 95
11 0 6 -13 24 -29 40 -30 30 -65 36 -107 19z"/>
<path d="M3893 3696 c-25 -22 -28 -31 -28 -86 0 -55 3 -64 28 -86 36 -30 68
-30 104 0 25 22 28 31 28 86 -1 55 -4 65 -28 86 -36 31 -68 30 -104 0z"/>
<path d="M4210 3692 c-16 -17 -30 -35 -30 -41 0 -7 34 -11 95 -11 53 0 95 4
95 9 0 26 -47 63 -87 68 -37 5 -45 2 -73 -25z"/>
<path d="M5998 3584 c-95 -16 -124 -45 -76 -78 30 -21 66 -20 105 4 29 18 50
57 41 77 -1 4 -33 3 -70 -3z"/>
<path d="M8718 3584 c-95 -16 -124 -45 -76 -78 30 -21 66 -20 105 4 29 18 50
57 41 77 -1 4 -33 3 -70 -3z"/>
</g>
</svg>
