<svg width="30" height="30" viewBox="0 0 30 30" fill="none" xmlns="http://www.w3.org/2000/svg">
<path fill-rule="evenodd" clip-rule="evenodd" d="M16.6856 12.554L14.974 14.2639L16.2966 15.5888L19.6074 12.2813C19.783 12.1059 19.8816 11.868 19.8818 11.6198C19.8819 11.3717 19.7835 11.1336 19.6081 10.958L16.3007 7.64722L14.9767 8.97076L16.6866 10.6823L12.5558 10.6802C11.0666 10.6795 9.63804 11.2703 8.58447 12.3228C7.53091 13.3753 6.93859 14.8032 6.93783 16.2924C6.93707 17.7816 7.52792 19.2101 8.5804 20.2637C9.63289 21.3173 11.0608 21.9096 12.55 21.9103L22.8443 21.9156L22.8452 20.0439L12.551 20.0386C11.5582 20.0381 10.6062 19.6433 9.90456 18.9409C9.20291 18.2385 8.809 17.2862 8.80951 16.2934C8.81002 15.3006 9.2049 14.3486 9.90728 13.647C10.6097 12.9453 11.562 12.5514 12.5548 12.5519L16.6856 12.554Z" fill="#F8F8F8"/>
</svg>
