<svg width="24" height="24" viewBox="0 0 24 24" fill="none" xmlns="http://www.w3.org/2000/svg">
<path fill-rule="evenodd" clip-rule="evenodd" d="M10.586 8.99999L12.414 10.828L11 12.243L7.464 8.70699C7.27653 8.51946 7.17121 8.26515 7.17121 7.99999C7.17121 7.73482 7.27653 7.48052 7.464 7.29299L11 3.75699L12.414 5.17199L10.586 6.99999H15C16.5913 6.99999 18.1174 7.63213 19.2426 8.75735C20.3679 9.88257 21 11.4087 21 13C21 14.5913 20.3679 16.1174 19.2426 17.2426C18.1174 18.3678 16.5913 19 15 19H4V17H15C16.0609 17 17.0783 16.5786 17.8284 15.8284C18.5786 15.0783 19 14.0609 19 13C19 11.9391 18.5786 10.9217 17.8284 10.1716C17.0783 9.42142 16.0609 8.99999 15 8.99999H10.586Z" fill="#F8F8F8"/>
</svg>
