<svg width="40" height="38" viewBox="0 0 40 38" fill="none" xmlns="http://www.w3.org/2000/svg">
<path d="M4.89583 2.44792C4.24661 2.44792 3.62397 2.70582 3.16489 3.16489C2.70582 3.62397 2.44792 4.24661 2.44792 4.89583V24.4792C2.44792 25.1284 2.70582 25.751 3.16489 26.2101C3.62397 26.6692 4.24661 26.9271 4.89583 26.9271H28.3616C29.6599 26.9274 30.905 27.4434 31.8229 28.3616L36.7188 33.2574V4.89583C36.7188 4.24661 36.4608 3.62397 36.0018 3.16489C35.5427 2.70582 34.9201 2.44792 34.2708 2.44792H4.89583ZM34.2708 0C35.5693 0 36.8146 0.51581 37.7327 1.43396C38.6509 2.3521 39.1667 3.59738 39.1667 4.89583V36.212C39.1666 36.4542 39.0947 36.6909 38.9601 36.8923C38.8254 37.0936 38.6341 37.2504 38.4103 37.3429C38.1864 37.4354 37.9402 37.4595 37.7027 37.412C37.4652 37.3645 37.2472 37.2476 37.0761 37.0761L30.0922 30.0922C29.6333 29.6331 29.0107 29.3751 28.3616 29.375H4.89583C3.59738 29.375 2.3521 28.8592 1.43396 27.941C0.51581 27.0229 0 25.7776 0 24.4792V4.89583C0 3.59738 0.51581 2.3521 1.43396 1.43396C2.3521 0.51581 3.59738 0 4.89583 0L34.2708 0Z" fill="white"/>
<path d="M19.5834 9.77457C23.6567 5.58618 33.8425 12.9152 19.5834 22.3373C5.32424 12.9128 15.51 5.58618 19.5834 9.77457Z" fill="white"/>
</svg>
