<svg width="143" height="122" viewBox="0 0 143 122" fill="none" xmlns="http://www.w3.org/2000/svg">
<path fill-rule="evenodd" clip-rule="evenodd" d="M10 20C10 14.4772 14.4772 10 20 10H123C128.523 10 133 14.4772 133 20V102C133 107.523 128.523 112 123 112H20C14.4772 112 10 107.523 10 102V20ZM0 5C0 2.23858 2.23858 0 5 0H138C140.761 0 143 2.23858 143 5V117C143 119.761 140.761 122 138 122H5C2.23858 122 0 119.761 0 117V5ZM39 36.5H105V31.5H39V36.5ZM104 59.5H38V54.5H104V59.5ZM38 84.5H104V79.5H38V84.5Z" fill="#D9D9D9"/>
</svg>
