<svg width="38" height="36" viewBox="0 0 38 36" fill="none" xmlns="http://www.w3.org/2000/svg">
<path d="M7.38889 22.135H30.6111V20.0269H7.38889V22.135ZM7.38889 15.8107H30.6111V13.7026H7.38889V15.8107ZM7.38889 9.48645H30.6111V7.37835H7.38889V9.48645ZM38 36L31.5041 29.5134H3.41156C2.43904 29.5134 1.62697 29.1887 0.975338 28.5394C0.323708 27.8901 -0.00140286 27.0799 4.54981e-06 26.1088V3.40458C4.54981e-06 2.43486 0.325819 1.62465 0.977449 0.973946C1.62908 0.323246 2.43974 -0.00140086 3.40945 4.54332e-06H34.5906C35.5617 4.54332e-06 36.3723 0.324651 37.0226 0.973946C37.6728 1.62324 37.9986 2.43345 38 3.40458V36ZM3.41156 27.4053H32.4056L35.8889 30.871V3.40669C35.8889 3.08204 35.7538 2.7841 35.4836 2.51286C35.2133 2.24162 34.9157 2.1067 34.5906 2.1081H3.40945C3.08574 2.1081 2.78808 2.24302 2.51645 2.51286C2.24482 2.78269 2.10971 3.07994 2.11112 3.40458V26.1088C2.11112 26.432 2.24623 26.7293 2.51645 27.0005C2.78667 27.2718 3.08434 27.4067 3.40945 27.4053" fill="white"/>
</svg>
