<?xml version="1.0" encoding="iso-8859-1"?>
<!-- Uploaded to: SVG Repo, www.svgrepo.com, Generator: SVG Repo Mixer Tools -->
<svg fill="#000000" height="800px" width="800px" version="1.1" id="Layer_1" xmlns="http://www.w3.org/2000/svg" xmlns:xlink="http://www.w3.org/1999/xlink" 
	 viewBox="0 0 512 512" xml:space="preserve">
<g transform="translate(1 1)">
	<g>
		<path d="M511,75.8c0-20.338-7.767-38.725-20.505-52.412c-0.415-0.774-0.969-1.489-1.681-2.201
			C475.29,7.663,457.317,0.08,438.351-0.887c-0.065-0.003-0.129-0.01-0.194-0.014C436.842-0.965,435.523-1,434.2-1H255H75.8
			C33.133-1-1,33.133-1,75.8v358.4c0,42.667,34.133,76.8,76.8,76.8H255h179.2c1.323,0,2.642-0.035,3.957-0.099
			c0.065-0.003,0.129-0.01,0.194-0.014c18.965-0.967,36.939-8.551,50.462-22.074c0.637-0.637,1.155-1.334,1.554-2.068
			C503.18,473.044,511,454.604,511,434.2V75.8z M75.8,16.067h158.72L16.067,234.52V75.8C16.067,42.52,42.52,16.067,75.8,16.067z
			 M16.067,434.2V275.48L234.52,493.933H75.8C42.52,493.933,16.067,467.48,16.067,434.2z M258.413,493.933L19.48,255L258.413,16.067
			H434.2c0.893,0,1.778,0.028,2.661,0.066c0.573,0.026,1.146,0.063,1.718,0.107c0.201,0.014,0.402,0.029,0.603,0.045
			c11.1,0.952,21.948,5.047,30.858,11.729L249.027,249.027c-1.707,1.707-2.56,3.413-2.56,5.973s0.853,4.267,2.56,5.973
			L470.04,481.987c-8.91,6.682-19.758,10.777-30.858,11.729c-0.201,0.016-0.402,0.031-0.603,0.045
			c-0.572,0.043-1.145,0.08-1.718,0.107c-0.883,0.038-1.768,0.066-2.661,0.066H258.413z M493.933,434.2
			c0,13.557-4.391,25.979-11.844,35.943L266.947,255L482.09,39.857c7.452,9.964,11.844,22.387,11.844,35.943V434.2z"/>
	</g>
</g>
</svg>