<svg width="38" height="36" viewBox="0 0 38 36" fill="none" xmlns="http://www.w3.org/2000/svg">
<path d="M14.9259 18.8571L18.9048 14.8889M18.9048 14.8889L22.8836 10.9206M18.9048 14.8889L14.9259 10.9206M18.9048 14.8889L22.8836 18.8571M9.20436 30.1687L6.17249 32.5893C4.5153 33.9087 3.6877 34.5694 2.99141 34.5714C2.69206 34.5717 2.39653 34.5045 2.12682 34.375C1.85711 34.2455 1.62018 34.0569 1.43369 33.8234C1 33.2817 1 32.2242 1 30.1091V7.35119C1 5.12897 1 4.01587 1.43369 3.16468C1.81566 2.41865 2.42243 1.81349 3.17244 1.43254C4.02392 1 5.13799 1 7.36614 1H30.4434C32.6715 1 33.7856 1 34.6351 1.43254C35.3851 1.81349 35.9939 2.41865 36.3758 3.16667C36.8095 4.01389 36.8095 5.125 36.8095 7.34325V22.4365C36.8095 24.6528 36.8095 25.7619 36.3758 26.6111C35.9944 27.3578 35.3857 27.9648 34.6371 28.3452C33.7876 28.7778 32.6735 28.7778 30.4494 28.7778H13.1812C12.3516 28.7778 11.9398 28.7778 11.5439 28.8571C11.1926 28.9296 10.8526 29.0491 10.5333 29.2123C10.1752 29.3929 9.85689 29.6488 9.22624 30.1528L9.20436 30.1687Z" stroke="white" stroke-width="2" stroke-linecap="round" stroke-linejoin="round"/>
</svg>
