<svg width="143" height="122" viewBox="0 0 143 122" fill="none" xmlns="http://www.w3.org/2000/svg">
<path fill-rule="evenodd" clip-rule="evenodd" d="M20 10C14.4772 10 10 14.4772 10 20V102C10 107.523 14.4772 112 20 112H123C128.523 112 133 107.523 133 102V20C133 14.4772 128.523 10 123 10H20ZM5 0C2.23858 0 0 2.23858 0 5V117C0 119.761 2.23858 122 5 122H138C140.761 122 143 119.761 143 117V5C143 2.23858 140.761 0 138 0H5ZM117.554 35.3636L116.574 65.6406H107.817L106.837 35.3636H117.554ZM112.185 79.6179C110.665 79.6179 109.358 79.0781 108.264 77.9986C107.185 76.919 106.645 75.6122 106.645 74.0781C106.645 72.5724 107.185 71.2869 108.264 70.2216C109.358 69.142 110.665 68.6023 112.185 68.6023C113.648 68.6023 114.933 69.142 116.041 70.2216C117.163 71.2869 117.724 72.5724 117.724 74.0781C117.724 75.1009 117.462 76.0312 116.936 76.8693C116.425 77.7074 115.75 78.375 114.912 78.8722C114.088 79.3693 113.179 79.6179 112.185 79.6179ZM21 44.5H87V39.5H21V44.5ZM87 60H21V55H87V60ZM21 77H87V72H21V77Z" fill="#D9D9D9"/>
</svg>
