<svg width="39" height="36" viewBox="0 0 39 36" fill="none" xmlns="http://www.w3.org/2000/svg">
<path d="M0.916748 3.13363C0.916748 1.40387 2.33719 0 4.08738 0H35.7937C37.5439 0 38.9644 1.40387 38.9644 3.13363V25.5167C38.9644 26.3478 38.6303 27.1449 38.0357 27.7325C37.4411 28.3202 36.6346 28.6504 35.7937 28.6504H18.4259C18.3664 28.6503 18.3074 28.6617 18.2524 28.6842C18.1974 28.7066 18.1474 28.7395 18.1052 28.7811L11.7639 35.0483C11.3944 35.4122 10.9242 35.6597 10.4126 35.7598C9.90091 35.8599 9.37072 35.8081 8.88884 35.6108C8.40695 35.4136 7.99493 35.0798 7.70471 34.6514C7.41449 34.2231 7.25906 33.7195 7.25802 33.204V28.6504H4.08738C3.24648 28.6504 2.44002 28.3202 1.84541 27.7325C1.2508 27.1449 0.916748 26.3478 0.916748 25.5167V3.13363ZM4.08738 2.68597C3.96725 2.68597 3.85204 2.73314 3.7671 2.81709C3.68216 2.90104 3.63444 3.01491 3.63444 3.13363V25.5167C3.63444 25.7638 3.83736 25.9644 4.08738 25.9644H8.61686C8.97725 25.9644 9.32288 26.1059 9.57771 26.3577C9.83254 26.6096 9.97571 26.9512 9.97571 27.3074V33.0195L16.1847 26.883C16.779 26.2952 17.5852 25.9648 18.4259 25.9644H35.7937C35.9139 25.9644 36.0291 25.9172 36.114 25.8333C36.199 25.7493 36.2467 25.6355 36.2467 25.5167V3.13363C36.2467 3.01491 36.199 2.90104 36.114 2.81709C36.0291 2.73314 35.9139 2.68597 35.7937 2.68597H4.08738ZM19.9406 6.26727C20.3009 6.26727 20.6466 6.40876 20.9014 6.66062C21.1562 6.91248 21.2994 7.25407 21.2994 7.61025V14.7728C21.2994 15.129 21.1562 15.4706 20.9014 15.7225C20.6466 15.9743 20.3009 16.1158 19.9406 16.1158C19.5802 16.1158 19.2345 15.9743 18.9797 15.7225C18.7249 15.4706 18.5817 15.129 18.5817 14.7728V7.61025C18.5817 7.25407 18.7249 6.91248 18.9797 6.66062C19.2345 6.40876 19.5802 6.26727 19.9406 6.26727ZM19.9406 22.3831C19.46 22.3831 18.9992 22.1944 18.6594 21.8586C18.3197 21.5228 18.1288 21.0674 18.1288 20.5924C18.1288 20.1175 18.3197 19.6621 18.6594 19.3263C18.9992 18.9905 19.46 18.8018 19.9406 18.8018C20.4211 18.8018 20.8819 18.9905 21.2217 19.3263C21.5615 19.6621 21.7523 20.1175 21.7523 20.5924C21.7523 21.0674 21.5615 21.5228 21.2217 21.8586C20.8819 22.1944 20.4211 22.3831 19.9406 22.3831Z" fill="#FCFEFF"/>
</svg>
